<?xml version="1.0" encoding="utf-8"?>
<!-- Generator: Adobe Illustrator 17.1.0, SVG Export Plug-In . SVG Version: 6.00 Build 0)  -->
<!DOCTYPE svg PUBLIC "-//W3C//DTD SVG 1.1//EN" "http://www.w3.org/Graphics/SVG/1.1/DTD/svg11.dtd">
<svg version="1.1" id="Layer_1" xmlns="http://www.w3.org/2000/svg" xmlns:xlink="http://www.w3.org/1999/xlink" x="0px" y="0px"
	 viewBox="0 0 300 212.175" enable-background="new 0 0 300 212.175" xml:space="preserve">
<g>
	<polygon fill="#FFFFFF" points="95,182.175 29,182.175 29,116.175 78,116.175 78,89.175 29.193,89.175 2,89.175 2,116.53 
		2,182.111 2,210.175 29.193,210.175 94.774,210.175 122,210.175 122,182.111 122,2.175 95,2.175 	"/>
	<polygon fill="#FFFFFF" points="270.807,89.175 239.742,89.175 212.129,89.175 181.065,89.175 153.452,89.175 136,89.175 
		136,116.175 153,116.175 153,210.175 181,210.175 181,116.175 212,116.175 212,210.175 240,210.175 240,116.175 271,116.175 
		271,210.175 298,210.175 298,116.53 298,89.175 	"/>
</g>
</svg>
