<?xml version="1.0" encoding="utf-8"?>
<!-- Generator: Adobe Illustrator 17.1.0, SVG Export Plug-In . SVG Version: 6.00 Build 0)  -->
<!DOCTYPE svg PUBLIC "-//W3C//DTD SVG 1.1//EN" "http://www.w3.org/Graphics/SVG/1.1/DTD/svg11.dtd">
<svg version="1.1" id="Layer_1" xmlns="http://www.w3.org/2000/svg" xmlns:xlink="http://www.w3.org/1999/xlink" x="0px" y="0px"
	 viewBox="0 0 211.3 82.7" enable-background="new 0 0 211.3 82.7" xml:space="preserve">
<g>
	<g>
		<path fill="#AABFD1" d="M91.1-195.1H72.2v3.5h19.4C91.3-192.7,91.1-193.9,91.1-195.1z"/>
		<path fill="#AABFD1" d="M122.4-195.1c-0.1,1.1-0.2,2.3-0.5,3.5h19.4v-3.5H122.4z"/>
	</g>
	<g>
		<path fill="#AABFD1" d="M97.2-214.4H37.7v3.5h57.6C95.9-212.1,96.5-213.3,97.2-214.4z"/>
		<path fill="#AABFD1" d="M116.2-214.4c0.6,1.2,1.2,2.3,1.8,3.5h57.7v-3.5H116.2z"/>
	</g>
	<g>
		<path fill="#AABFD1" d="M92.6-204.7H55v3.5h36.6C91.8-202.3,92.1-203.5,92.6-204.7z"/>
		<path fill="#AABFD1" d="M120.8-204.7c0.4,1.2,0.8,2.4,1.1,3.5h36.7v-3.5H120.8z"/>
	</g>
	<path fill="#25C0EA" d="M118.4-196.6c0.5-7.8-11.7-25.5-11.7-25.5s-12.2,17.7-11.6,25.5c0,0-0.4,12.1,11.6,12.8
		C118.8-184.5,118.4-196.6,118.4-196.6z M112.6-195.8c0,0.7-1.3,1.3-2,1.3c-0.7,0-2-0.6-2-1.3c0,0.7-1.3,1.3-2,1.3
		c-0.7,0-2-0.6-2-1.3c0,0.7-1.3,1.3-2,1.3c-0.7,0-2-0.6-2-1.3c0,0.5-0.5,0.8-1.1,1.1c-0.1-0.8-0.1-1.4-0.1-1.7l0-0.2l0-0.2
		c0-0.4,0-0.9,0.1-1.5c0.4-0.1,0.8-0.4,1.1-0.7c0.5,0.5,1.2,0.9,2,0.9c0.8,0,1.5-0.3,2-0.9c0.5,0.5,1.2,0.9,2,0.9
		c0.8,0,1.5-0.3,2-0.9c0.5,0.5,1.2,0.9,2,0.9c0.8,0,1.5-0.3,2-0.9c0.3,0.3,0.7,0.5,1.1,0.7c0.1,0.6,0.2,1.1,0.1,1.5l0,0.2l0,0.2
		c0,0.4,0,1-0.1,1.7C113.2-195,112.6-195.4,112.6-195.8z M112.5-202.4c-0.3,0.5-1.2,0.9-1.8,0.9c-0.7,0-2-0.6-2-1.3
		c0,0.7-1.3,1.3-2,1.3c-0.7,0-2-0.6-2-1.3c0,0.7-1.3,1.3-2,1.3c-0.6,0-1.5-0.4-1.8-0.9c1.3-3.3,3.4-7.4,5.8-11.3
		C109.1-209.7,111.2-205.7,112.5-202.4z M106.7-188.4c-3.4-0.3-5.2-1.9-6.1-3.7c0.1-0.1,0.2-0.1,0.2-0.2c0.5,0.5,1.2,0.9,2,0.9
		c0.8,0,1.5-0.3,2-0.9c0.5,0.5,1.2,0.9,2,0.9c0.8,0,1.5-0.3,2-0.9c0.5,0.5,1.2,0.9,2,0.9c0.8,0,1.5-0.3,2-0.9
		c0.1,0.1,0.1,0.1,0.2,0.1C111.9-190.3,110.1-188.6,106.7-188.4z"/>
</g>
<g opacity="0.2">
	<g>
		<path fill="#5D5E5E" d="M91.1,294.4H72.2v3.5h19.4C91.3,296.7,91.1,295.5,91.1,294.4z"/>
		<path fill="#5D5E5E" d="M122.4,294.4c-0.1,1.1-0.2,2.3-0.5,3.5h19.4v-3.5H122.4z"/>
	</g>
	<g>
		<path fill="#5D5E5E" d="M97.2,275H37.7v3.5h57.6C95.9,277.4,96.5,276.2,97.2,275z"/>
		<path fill="#5D5E5E" d="M116.2,275c0.6,1.2,1.2,2.3,1.8,3.5h57.7V275H116.2z"/>
	</g>
	<g>
		<path fill="#5D5E5E" d="M92.6,284.7H55v3.5h36.6C91.8,287.1,92.1,285.9,92.6,284.7z"/>
		<path fill="#5D5E5E" d="M120.8,284.7c0.4,1.2,0.8,2.4,1.1,3.5h36.7v-3.5H120.8z"/>
	</g>
	<path fill="#5D5E5E" d="M118.4,292.8c0.5-7.8-11.7-25.5-11.7-25.5S94.6,285,95.1,292.8c0,0-0.4,12.1,11.6,12.8
		C118.8,304.9,118.4,292.8,118.4,292.8z M112.6,293.6c0,0.7-1.3,1.3-2,1.3c-0.7,0-2-0.6-2-1.3c0,0.7-1.3,1.3-2,1.3
		c-0.7,0-2-0.6-2-1.3c0,0.7-1.3,1.3-2,1.3c-0.7,0-2-0.6-2-1.3c0,0.5-0.5,0.8-1.1,1.1c-0.1-0.8-0.1-1.4-0.1-1.7l0-0.2l0-0.2
		c0-0.4,0-0.9,0.1-1.5c0.4-0.1,0.8-0.4,1.1-0.7c0.5,0.5,1.2,0.9,2,0.9c0.8,0,1.5-0.3,2-0.9c0.5,0.5,1.2,0.9,2,0.9
		c0.8,0,1.5-0.3,2-0.9c0.5,0.5,1.2,0.9,2,0.9c0.8,0,1.5-0.3,2-0.9c0.3,0.3,0.7,0.5,1.1,0.7c0.1,0.6,0.2,1.1,0.1,1.5l0,0.2l0,0.2
		c0,0.4,0,1-0.1,1.7C113.2,294.4,112.6,294.1,112.6,293.6z M112.5,287.1c-0.3,0.5-1.2,0.9-1.8,0.9c-0.7,0-2-0.6-2-1.3
		c0,0.7-1.3,1.3-2,1.3c-0.7,0-2-0.6-2-1.3c0,0.7-1.3,1.3-2,1.3c-0.6,0-1.5-0.4-1.8-0.9c1.3-3.3,3.4-7.4,5.8-11.3
		C109.1,279.7,111.2,283.8,112.5,287.1z M106.7,301.1c-3.4-0.3-5.2-1.9-6.1-3.7c0.1-0.1,0.2-0.1,0.2-0.2c0.5,0.5,1.2,0.9,2,0.9
		c0.8,0,1.5-0.3,2-0.9c0.5,0.5,1.2,0.9,2,0.9c0.8,0,1.5-0.3,2-0.9c0.5,0.5,1.2,0.9,2,0.9c0.8,0,1.5-0.3,2-0.9
		c0.1,0.1,0.1,0.1,0.2,0.1C111.9,299.2,110.1,300.8,106.7,301.1z"/>
</g>
<path fill="#25C0EA" d="M1811.1,408.8c12.4-189.3-283.3-619.4-283.3-619.4s-295.5,430.1-283.1,619.4c0,0-10.3,294.5,283.1,310.6
	C1821.2,703.3,1811.1,408.8,1811.1,408.8z M1671.6,428c0,17.1-31,30.8-47.9,30.8c-16.9,0-47.9-13.7-47.9-30.8
	c0,17.1-31.1,30.8-47.9,30.8c-17,0-47.9-13.7-47.9-30.8c0,17.1-31,30.8-47.8,30.8c-17.1,0-48.3-13.7-48.3-30.8
	c0,11-12.7,20.1-26.3,25.6c-2.6-18.4-2.8-33.4-2.5-40.9l0.2-5.7l-0.4-5.6c-0.7-10.2,0.9-23,3.4-37.1c9.7-3.6,18.8-8.7,25.8-16.4
	c12.2,13.2,29.5,21.1,48.1,21.1c18.3,0,35.6-7.9,47.8-21.1c12.2,13.2,29.4,21.1,47.9,21.1c18.5,0,35.9-7.9,47.9-21.1
	c12.2,13.2,29.5,21.1,47.9,21.1c18.3,0,35.8-7.9,47.8-21.1c7.1,7.6,16.2,12.8,25.8,16.4c2.7,14.1,4.2,26.9,3.5,37.1l-0.4,5.6
	l0.4,5.7c0.1,9.4-0.8,24-3.2,40.6C1684.2,447.8,1671.6,438.8,1671.6,428z M1667.7,269c-8.5,12.4-30.4,21.3-43.9,21.3
	c-16.9,0-47.9-13.7-47.9-30.8c0,17.1-31.1,30.8-47.9,30.8c-17,0-47.9-13.7-47.9-30.8c0,17.1-31,30.8-47.8,30.8
	c-13.7,0-35.5-8.8-44.1-21c31.7-80,82.6-178.9,139.8-275.1C1585.1,90.3,1636,189,1667.7,269z M1527.9,608.8
	c-83.4-6.3-126.5-46.1-149-88.8c1.6-1.4,3.8-2.2,5.2-3.7c12.2,13.3,29.5,21.2,48.1,21.2c18.3,0,35.6-7.9,47.8-21.2
	c12.2,13.3,29.4,21.2,47.9,21.2c18.5,0,35.9-7.9,47.9-21.2c12.2,13.3,29.5,21.2,47.9,21.2c18.3,0,35.8-7.9,47.8-21.2
	c1.5,1.5,3.5,2.3,5.1,3.6C1654,563,1610.7,602.6,1527.9,608.8z"/>
<g>
	<g>
		<path fill="#FFFFFF" d="M92.5,68.7H73.7v3.5h19.4C92.8,71,92.6,69.8,92.5,68.7z"/>
		<path fill="#FFFFFF" d="M123.9,68.7c-0.1,1.1-0.2,2.3-0.5,3.5h19.4v-3.5H123.9z"/>
	</g>
	<g>
		<path fill="#FFFFFF" d="M98.7,49.3H39.2v3.5h57.6C97.4,51.6,98,50.5,98.7,49.3z"/>
		<path fill="#FFFFFF" d="M117.7,49.3c0.6,1.2,1.2,2.3,1.8,3.5h57.7v-3.5H117.7z"/>
	</g>
	<g>
		<path fill="#FFFFFF" d="M94.1,59H56.4v3.5H93C93.3,61.4,93.6,60.2,94.1,59z"/>
		<path fill="#FFFFFF" d="M122.3,59c0.4,1.2,0.8,2.4,1.1,3.5H160V59H122.3z"/>
	</g>
	<path fill="#FFFFFF" d="M119.9,67.1c0.5-7.8-11.7-25.5-11.7-25.5S96,59.3,96.6,67.1c0,0-0.4,12.1,11.6,12.8
		C120.3,79.2,119.9,67.1,119.9,67.1z M114.1,67.9c0,0.7-1.3,1.3-2,1.3c-0.7,0-2-0.6-2-1.3c0,0.7-1.3,1.3-2,1.3c-0.7,0-2-0.6-2-1.3
		c0,0.7-1.3,1.3-2,1.3c-0.7,0-2-0.6-2-1.3c0,0.5-0.5,0.8-1.1,1.1c-0.1-0.8-0.1-1.4-0.1-1.7l0-0.2l0-0.2c0-0.4,0-0.9,0.1-1.5
		c0.4-0.1,0.8-0.4,1.1-0.7c0.5,0.5,1.2,0.9,2,0.9c0.8,0,1.5-0.3,2-0.9c0.5,0.5,1.2,0.9,2,0.9c0.8,0,1.5-0.3,2-0.9
		c0.5,0.5,1.2,0.9,2,0.9c0.8,0,1.5-0.3,2-0.9c0.3,0.3,0.7,0.5,1.1,0.7c0.1,0.6,0.2,1.1,0.1,1.5l0,0.2l0,0.2c0,0.4,0,1-0.1,1.7
		C114.6,68.7,114.1,68.4,114.1,67.9z M114,61.4c-0.3,0.5-1.2,0.9-1.8,0.9c-0.7,0-2-0.6-2-1.3c0,0.7-1.3,1.3-2,1.3
		c-0.7,0-2-0.6-2-1.3c0,0.7-1.3,1.3-2,1.3c-0.6,0-1.5-0.4-1.8-0.9c1.3-3.3,3.4-7.4,5.8-11.3C110.6,54,112.7,58.1,114,61.4z
		 M108.2,75.4c-3.4-0.3-5.2-1.9-6.1-3.7c0.1-0.1,0.2-0.1,0.2-0.2c0.5,0.5,1.2,0.9,2,0.9c0.8,0,1.5-0.3,2-0.9c0.5,0.5,1.2,0.9,2,0.9
		c0.8,0,1.5-0.3,2-0.9c0.5,0.5,1.2,0.9,2,0.9c0.8,0,1.5-0.3,2-0.9c0.1,0.1,0.1,0.1,0.2,0.1C113.4,73.5,111.6,75.1,108.2,75.4z"/>
	<g>
		<path fill="#FFFFFF" d="M22.3,46.3c-1.5-4.1-3-8.2-4.5-12.3c-1.9,0.7-3.9,1.4-5.8,2.2c1.6,4.1,3.2,8.1,4.8,12.2
			c-1.2,0.5-2.4,0.9-3.5,1.4c-3.5-8.4-7-16.8-10.4-25.2c1.3-0.5,2.6-1.1,3.9-1.6c1.4,3.4,2.7,6.9,4.1,10.3c1.9-0.8,3.9-1.5,5.9-2.2
			c-1.3-3.5-2.6-6.9-3.8-10.4c1.3-0.5,2.7-1,4-1.4c3,8.6,6,17.2,9,25.8C24.7,45.5,23.5,45.9,22.3,46.3z"/>
		<path fill="#FFFFFF" d="M35.2,42c-1.1-3.7-2.3-7.5-3.4-11.2c-3.4-4.4-6.9-8.7-10.5-13c1.4-0.4,2.7-0.9,4.1-1.3c1,1.3,2,2.7,3,4
			c1.7,2.3,3.2,4.4,4.3,6.1c0,0,0.1,0,0.1,0c-0.1-1.8,0-5.6,0.2-7.8c0.1-1.6,0.2-3.1,0.4-4.7c1.4-0.4,2.7-0.8,4.1-1.1
			c-0.7,5.6-1.3,11.1-1.8,16.6c1.1,3.8,2.2,7.5,3.2,11.3C37.7,41.3,36.5,41.6,35.2,42z"/>
		<path fill="#FFFFFF" d="M60,27.7c1.1,5.8-1.1,8.3-5.5,9.3c-2,0.4-4,0.9-6,1.4c-2.2-8.8-4.3-17.7-6.5-26.5c2.2-0.5,4.4-1.1,6.7-1.5
			c4.9-1,8.2,0.5,9.2,6.1C58.6,20.2,59.3,24,60,27.7z M54,18.1c-0.8-4.2-1.8-5.3-4.9-4.7c-0.8,0.2-1.5,0.3-2.3,0.5
			c1.6,6.8,3.1,13.7,4.7,20.5c0.7-0.2,1.5-0.3,2.2-0.5c2.8-0.6,3.3-1.9,2.5-5.8C55.4,24.8,54.7,21.4,54,18.1z"/>
		<path fill="#FFFFFF" d="M75.1,33.4c-0.5-0.4-1.1-1.5-1.3-3.3c-0.2-1.7-0.5-3.5-0.7-5.2c-0.3-2.6-1.4-3.6-3.4-3.3
			c-0.7,0.1-1.5,0.2-2.2,0.3c0.6,4.1,1.2,8.1,1.9,12.2c-1.2,0.2-2.5,0.4-3.7,0.6c-1.5-9-3-17.9-4.5-26.9c2.4-0.4,4.7-0.8,7.1-1.1
			c4-0.6,7.3,1.1,7.8,5.9c0.4,3.4-0.3,5.7-2.6,6.7c0,0,0,0.1,0,0.1c2,0.6,3.1,2,3.3,4.2c0.2,2,0.5,4,0.7,6c0.2,1.6,1,2.9,1.4,3.4
			C77.7,33.1,76.4,33.3,75.1,33.4z M68.2,10c-0.8,0.1-1.7,0.2-2.5,0.4c0.4,2.9,0.9,5.7,1.3,8.6c0.8-0.1,1.6-0.2,2.4-0.3
			c2.5-0.4,3.1-1.5,2.6-5.4C71.6,10.2,70.1,9.7,68.2,10z"/>
		<path fill="#FFFFFF" d="M96.2,23.7c0.2,4.2-0.9,8.4-6.5,8.7c-4.4,0.3-6.8-2.6-7.3-7.8c-0.4-4-0.7-7.9-1.1-11.9
			c-0.4-4.5,1.5-8.1,6.7-8.5c5.2-0.3,7.6,2.9,7.8,7.7C95.9,15.9,96.1,19.8,96.2,23.7z M91.7,12.5c-0.2-3.5-1-5.2-3.6-5
			c-2.5,0.2-3.1,2-2.8,5.3c0.3,3.8,0.6,7.6,0.9,11.4c0.3,3.2,0.9,5.3,3.4,5.1c2.5-0.2,2.9-2.4,2.7-5.5C92.1,20,91.9,16.3,91.7,12.5z
			"/>
		<path fill="#FFFFFF" d="M111.8,31.6c-0.7-1.9-1.4-3.9-2.1-5.8c-0.7-1.8-1.1-3.2-1.4-4.8c-0.1,0-0.1,0-0.2,0
			c-0.3,1.5-0.8,3.2-1.5,4.8c-0.7,1.9-1.4,3.8-2.1,5.7c-1.3,0-2.6,0-3.9,0.1c1.8-4.8,3.6-9.5,5.6-14.3c-1.8-4.4-3.7-8.7-5.7-13
			c1.4,0,2.9,0,4.3,0c0.6,1.5,1.2,3,1.8,4.5c0.7,1.7,1.2,3.3,1.5,4.7c0,0,0.1,0,0.1,0c0.3-1.4,0.8-3.2,1.4-4.8
			c0.6-1.5,1.2-2.9,1.8-4.4c1.4,0,2.9,0.1,4.3,0.1c-2,4.2-3.9,8.5-5.8,12.8c1.9,4.8,3.7,9.7,5.4,14.6
			C114.4,31.6,113.1,31.6,111.8,31.6z"/>
		<path fill="#FFFFFF" d="M126.9,21.4c-0.8-0.1-1.6-0.1-2.4-0.2c-0.3,3.6-0.5,7.3-0.8,10.9c-1.2-0.1-2.5-0.2-3.7-0.2
			c0.5-9.1,1.1-18.2,1.6-27.3c2.1,0.1,4.3,0.3,6.4,0.4c6.1,0.5,7.5,4.5,7,9C134.5,17.6,133,21.9,126.9,21.4z M130.8,13.6
			c0.3-3,0.2-5.2-3.2-5.5c-0.7-0.1-1.5-0.1-2.2-0.2c-0.2,3.4-0.5,6.7-0.7,10.1c0.8,0.1,1.6,0.1,2.4,0.2
			C129.7,18.5,130.5,17,130.8,13.6z"/>
		<path fill="#FFFFFF" d="M146.4,34.9c0.7-4.3,1.5-8.6,2.2-12.9c-2-0.3-4-0.7-6-1c-0.6,4.3-1.3,8.6-1.9,13c-1.2-0.2-2.5-0.4-3.7-0.5
			c1.2-9,2.3-18,3.5-27.1c1.4,0.2,2.8,0.4,4.1,0.6c-0.5,3.7-1.1,7.3-1.6,11c2,0.3,4.1,0.6,6.1,1c0.6-3.6,1.2-7.3,1.9-10.9
			c1.4,0.2,2.7,0.5,4.1,0.7c-1.7,8.9-3.3,17.9-5,26.8C148.8,35.3,147.6,35.1,146.4,34.9z"/>
		<path fill="#FFFFFF" d="M154.2,36.4c1.8-8.9,3.6-17.8,5.5-26.7c4,0.8,8.1,1.7,12.1,2.8c-0.3,1-0.5,2-0.8,3
			c-2.6-0.7-5.3-1.3-7.9-1.9c-0.6,2.7-1.2,5.3-1.8,8c2.4,0.5,4.8,1.1,7.2,1.7c-0.3,1-0.5,2-0.8,3c-2.4-0.6-4.8-1.2-7.2-1.7
			c-0.7,3.2-1.4,6.3-2.1,9.5c2.7,0.6,5.4,1.2,8.1,1.9c-0.3,1-0.5,2-0.8,3C162,38.1,158.1,37.2,154.2,36.4z"/>
		<path fill="#FFFFFF" d="M179.2,42.9c-0.3-0.6-0.3-1.9,0.2-3.5c0.5-1.7,1.1-3.3,1.6-5c0.8-2.5,0.2-3.8-1.8-4.4
			c-0.7-0.2-1.5-0.4-2.2-0.7c-1.2,4-2.3,7.9-3.5,11.9c-1.2-0.4-2.4-0.7-3.6-1c2.4-8.8,4.8-17.5,7.2-26.3c2.3,0.6,4.7,1.3,7,2
			c3.9,1.2,6.2,4.1,4.7,8.7c-1.1,3.3-2.7,5.1-5.2,5c0,0,0,0,0,0.1c1.5,1.4,2,3.1,1.3,5.2c-0.6,1.9-1.3,3.8-1.9,5.7
			c-0.5,1.5-0.3,3.1-0.1,3.7C181.7,43.7,180.5,43.3,179.2,42.9z M182.8,18.7c-0.8-0.2-1.6-0.5-2.5-0.7c-0.8,2.8-1.6,5.6-2.4,8.3
			c0.8,0.2,1.5,0.5,2.3,0.7c2.4,0.7,3.5,0,4.7-3.8C185.8,20.3,184.7,19.3,182.8,18.7z"/>
		<path fill="#FFFFFF" d="M187,45.5c3.1-8.6,6.1-17.1,9.2-25.7c3.9,1.4,7.8,2.9,11.7,4.5c-0.4,1-0.8,1.9-1.2,2.9c-2.5-1-5.1-2-7.6-3
			c-1,2.6-1.9,5.1-2.9,7.7c2.3,0.9,4.7,1.8,7,2.7c-0.4,1-0.8,1.9-1.2,2.9c-2.3-0.9-4.6-1.8-6.9-2.7c-1.1,3-2.3,6.1-3.4,9.1
			c2.6,1,5.2,2,7.8,3.1c-0.4,1-0.8,1.9-1.2,2.9C194.5,48.3,190.8,46.9,187,45.5z"/>
	</g>
</g>
<g>
	<g>
		<g>
			<path fill="#FFFFFF" d="M381.2,68.7h-18.9v3.5h19.4C381.4,71,381.3,69.8,381.2,68.7z"/>
			<path fill="#FFFFFF" d="M412.5,68.7c-0.1,1.1-0.2,2.3-0.5,3.5h19.4v-3.5H412.5z"/>
		</g>
		<g>
			<path fill="#FFFFFF" d="M387.3,49.3h-59.5v3.5h57.6C386.1,51.6,386.7,50.5,387.3,49.3z"/>
			<path fill="#FFFFFF" d="M406.4,49.3c0.6,1.2,1.2,2.3,1.8,3.5h57.7v-3.5H406.4z"/>
		</g>
		<g>
			<path fill="#FFFFFF" d="M382.7,59h-37.6v3.5h36.6C382,61.4,382.3,60.2,382.7,59z"/>
			<path fill="#FFFFFF" d="M410.9,59c0.4,1.2,0.8,2.4,1.1,3.5h36.7V59H410.9z"/>
		</g>
		<path fill="#FFFFFF" d="M408.5,67.1c0.5-7.8-11.7-25.5-11.7-25.5s-12.2,17.7-11.6,25.5c0,0-0.4,12.1,11.6,12.8
			C408.9,79.2,408.5,67.1,408.5,67.1z M402.8,67.9c0,0.7-1.3,1.3-2,1.3c-0.7,0-2-0.6-2-1.3c0,0.7-1.3,1.3-2,1.3c-0.7,0-2-0.6-2-1.3
			c0,0.7-1.3,1.3-2,1.3c-0.7,0-2-0.6-2-1.3c0,0.5-0.5,0.8-1.1,1.1c-0.1-0.8-0.1-1.4-0.1-1.7l0-0.2l0-0.2c0-0.4,0-0.9,0.1-1.5
			c0.4-0.1,0.8-0.4,1.1-0.7c0.5,0.5,1.2,0.9,2,0.9c0.8,0,1.5-0.3,2-0.9c0.5,0.5,1.2,0.9,2,0.9c0.8,0,1.5-0.3,2-0.9
			c0.5,0.5,1.2,0.9,2,0.9c0.8,0,1.5-0.3,2-0.9c0.3,0.3,0.7,0.5,1.1,0.7c0.1,0.6,0.2,1.1,0.1,1.5l0,0.2l0,0.2c0,0.4,0,1-0.1,1.7
			C403.3,68.7,402.8,68.4,402.8,67.9z M402.6,61.4c-0.3,0.5-1.2,0.9-1.8,0.9c-0.7,0-2-0.6-2-1.3c0,0.7-1.3,1.3-2,1.3
			c-0.7,0-2-0.6-2-1.3c0,0.7-1.3,1.3-2,1.3c-0.6,0-1.5-0.4-1.8-0.9c1.3-3.3,3.4-7.4,5.8-11.3C399.2,54,401.3,58.1,402.6,61.4z
			 M396.9,75.4c-3.4-0.3-5.2-1.9-6.1-3.7c0.1-0.1,0.2-0.1,0.2-0.2c0.5,0.5,1.2,0.9,2,0.9c0.8,0,1.5-0.3,2-0.9c0.5,0.5,1.2,0.9,2,0.9
			c0.8,0,1.5-0.3,2-0.9c0.5,0.5,1.2,0.9,2,0.9c0.8,0,1.5-0.3,2-0.9c0.1,0.1,0.1,0.1,0.2,0.1C402,73.5,400.3,75.1,396.9,75.4z"/>
	</g>
	<g>
		<path fill="#FFFFFF" d="M311,46.3c-1.5-4.1-3-8.2-4.5-12.3c-1.9,0.7-3.9,1.4-5.8,2.2c1.6,4.1,3.2,8.1,4.8,12.2
			c-1.2,0.5-2.4,0.9-3.5,1.4c-3.5-8.4-7-16.8-10.4-25.2c1.3-0.5,2.6-1.1,3.9-1.6c1.4,3.4,2.7,6.9,4.1,10.3c1.9-0.8,3.9-1.5,5.9-2.2
			c-1.3-3.5-2.6-6.9-3.8-10.4c1.3-0.5,2.7-1,4-1.4c3,8.6,6,17.2,9,25.8C313.4,45.5,312.2,45.9,311,46.3z"/>
		<path fill="#FFFFFF" d="M323.9,42c-1.1-3.7-2.3-7.5-3.4-11.2c-3.4-4.4-6.9-8.7-10.5-13c1.4-0.4,2.7-0.9,4.1-1.3c1,1.3,2,2.7,3,4
			c1.7,2.3,3.2,4.4,4.3,6.1c0,0,0.1,0,0.1,0c-0.1-1.8,0-5.6,0.2-7.8c0.1-1.6,0.2-3.1,0.4-4.7c1.4-0.4,2.7-0.8,4.1-1.1
			c-0.7,5.6-1.3,11.1-1.8,16.6c1.1,3.8,2.2,7.5,3.2,11.3C326.3,41.3,325.1,41.6,323.9,42z"/>
		<path fill="#FFFFFF" d="M348.6,27.7c1.1,5.8-1.1,8.3-5.5,9.3c-2,0.4-4,0.9-6,1.4c-2.2-8.8-4.3-17.7-6.5-26.5
			c2.2-0.5,4.4-1.1,6.7-1.5c4.9-1,8.2,0.5,9.2,6.1C347.2,20.2,347.9,24,348.6,27.7z M342.7,18.1c-0.8-4.2-1.8-5.3-4.9-4.7
			c-0.8,0.2-1.5,0.3-2.3,0.5c1.6,6.8,3.1,13.7,4.7,20.5c0.7-0.2,1.5-0.3,2.2-0.5c2.8-0.6,3.3-1.9,2.5-5.8
			C344.1,24.8,343.4,21.4,342.7,18.1z"/>
		<path fill="#FFFFFF" d="M363.8,33.4c-0.5-0.4-1.1-1.5-1.3-3.3c-0.2-1.7-0.5-3.5-0.7-5.2c-0.3-2.6-1.4-3.6-3.4-3.3
			c-0.7,0.1-1.5,0.2-2.2,0.3c0.6,4.1,1.2,8.1,1.9,12.2c-1.2,0.2-2.5,0.4-3.7,0.6c-1.5-9-3-17.9-4.5-26.9c2.4-0.4,4.7-0.8,7.1-1.1
			c4-0.6,7.3,1.1,7.8,5.9c0.4,3.4-0.3,5.7-2.6,6.7c0,0,0,0.1,0,0.1c2,0.6,3.1,2,3.3,4.2c0.2,2,0.5,4,0.7,6c0.2,1.6,1,2.9,1.4,3.4
			C366.3,33.1,365.1,33.3,363.8,33.4z M356.8,10c-0.8,0.1-1.7,0.2-2.5,0.4c0.4,2.9,0.9,5.7,1.3,8.6c0.8-0.1,1.6-0.2,2.4-0.3
			c2.5-0.4,3.1-1.5,2.6-5.4C360.2,10.2,358.8,9.7,356.8,10z"/>
		<path fill="#FFFFFF" d="M384.9,23.7c0.2,4.2-0.9,8.4-6.5,8.7c-4.4,0.3-6.8-2.6-7.3-7.8c-0.4-4-0.7-7.9-1.1-11.9
			c-0.4-4.5,1.5-8.1,6.7-8.5c5.2-0.3,7.6,2.9,7.8,7.7C384.6,15.9,384.7,19.8,384.9,23.7z M380.4,12.5c-0.2-3.5-1-5.2-3.6-5
			c-2.5,0.2-3.1,2-2.8,5.3c0.3,3.8,0.6,7.6,0.9,11.4c0.3,3.2,0.9,5.3,3.4,5.1c2.5-0.2,2.9-2.4,2.7-5.5
			C380.8,20,380.6,16.3,380.4,12.5z"/>
		<path fill="#FFFFFF" d="M400.5,31.6c-0.7-1.9-1.4-3.9-2.1-5.8c-0.7-1.8-1.1-3.2-1.4-4.8c-0.1,0-0.1,0-0.2,0
			c-0.3,1.5-0.8,3.2-1.5,4.8c-0.7,1.9-1.4,3.8-2.1,5.7c-1.3,0-2.6,0-3.9,0.1c1.8-4.8,3.6-9.5,5.6-14.3c-1.8-4.4-3.7-8.7-5.7-13
			c1.4,0,2.9,0,4.3,0c0.6,1.5,1.2,3,1.8,4.5c0.7,1.7,1.2,3.3,1.5,4.7c0,0,0.1,0,0.1,0c0.3-1.4,0.8-3.2,1.4-4.8
			c0.6-1.5,1.2-2.9,1.8-4.4c1.4,0,2.9,0.1,4.3,0.1c-2,4.2-3.9,8.5-5.8,12.8c1.9,4.8,3.7,9.7,5.4,14.6
			C403.1,31.6,401.8,31.6,400.5,31.6z"/>
		<path fill="#FFFFFF" d="M415.5,21.4c-0.8-0.1-1.6-0.1-2.4-0.2c-0.3,3.6-0.5,7.3-0.8,10.9c-1.2-0.1-2.5-0.2-3.7-0.2
			c0.5-9.1,1.1-18.2,1.6-27.3c2.1,0.1,4.3,0.3,6.4,0.4c6.1,0.5,7.5,4.5,7,9C423.1,17.6,421.7,21.9,415.5,21.4z M419.5,13.6
			c0.3-3,0.2-5.2-3.2-5.5c-0.7-0.1-1.5-0.1-2.2-0.2c-0.2,3.4-0.5,6.7-0.7,10.1c0.8,0.1,1.6,0.1,2.4,0.2
			C418.4,18.5,419.2,17,419.5,13.6z"/>
		<path fill="#FFFFFF" d="M435,34.9c0.7-4.3,1.5-8.6,2.2-12.9c-2-0.3-4-0.7-6-1c-0.6,4.3-1.3,8.6-1.9,13c-1.2-0.2-2.5-0.4-3.7-0.5
			c1.2-9,2.3-18,3.5-27.1c1.4,0.2,2.8,0.4,4.1,0.6c-0.5,3.7-1.1,7.3-1.6,11c2,0.3,4.1,0.6,6.1,1c0.6-3.6,1.2-7.3,1.9-10.9
			c1.4,0.2,2.7,0.5,4.1,0.7c-1.7,8.9-3.3,17.9-5,26.8C437.5,35.3,436.2,35.1,435,34.9z"/>
		<path fill="#FFFFFF" d="M442.9,36.4c1.8-8.9,3.6-17.8,5.5-26.7c4,0.8,8.1,1.7,12.1,2.8c-0.3,1-0.5,2-0.8,3
			c-2.6-0.7-5.3-1.3-7.9-1.9c-0.6,2.7-1.2,5.3-1.8,8c2.4,0.5,4.8,1.1,7.2,1.7c-0.3,1-0.5,2-0.8,3c-2.4-0.6-4.8-1.2-7.2-1.7
			c-0.7,3.2-1.4,6.3-2.1,9.5c2.7,0.6,5.4,1.2,8.1,1.9c-0.3,1-0.5,2-0.8,3C450.6,38.1,446.8,37.2,442.9,36.4z"/>
		<path fill="#FFFFFF" d="M467.9,42.9c-0.3-0.6-0.3-1.9,0.2-3.5c0.5-1.7,1.1-3.3,1.6-5c0.8-2.5,0.2-3.8-1.8-4.4
			c-0.7-0.2-1.5-0.4-2.2-0.7c-1.2,4-2.3,7.9-3.5,11.9c-1.2-0.4-2.4-0.7-3.6-1c2.4-8.8,4.8-17.5,7.2-26.3c2.3,0.6,4.7,1.3,7,2
			c3.9,1.2,6.2,4.1,4.7,8.7c-1.1,3.3-2.7,5.1-5.2,5c0,0,0,0,0,0.1c1.5,1.4,2,3.1,1.3,5.2c-0.6,1.9-1.3,3.8-1.9,5.7
			c-0.5,1.5-0.3,3.1-0.1,3.7C470.3,43.7,469.1,43.3,467.9,42.9z M471.5,18.7c-0.8-0.2-1.6-0.5-2.5-0.7c-0.8,2.8-1.6,5.6-2.4,8.3
			c0.8,0.2,1.5,0.5,2.3,0.7c2.4,0.7,3.5,0,4.7-3.8C474.5,20.3,473.4,19.3,471.5,18.7z"/>
		<path fill="#FFFFFF" d="M475.7,45.5c3.1-8.6,6.1-17.1,9.2-25.7c3.9,1.4,7.8,2.9,11.7,4.5c-0.4,1-0.8,1.9-1.2,2.9
			c-2.5-1-5.1-2-7.6-3c-1,2.6-1.9,5.1-2.9,7.7c2.3,0.9,4.7,1.8,7,2.7c-0.4,1-0.8,1.9-1.2,2.9c-2.3-0.9-4.6-1.8-6.9-2.7
			c-1.1,3-2.3,6.1-3.4,9.1c2.6,1,5.2,2,7.8,3.1c-0.4,1-0.8,1.9-1.2,2.9C483.2,48.3,479.4,46.9,475.7,45.5z"/>
	</g>
</g>
<rect x="-188.7" y="-249.7" fill="#AABFD1" width="40.7" height="46.8"/>
<rect x="-148.3" y="-249.7" fill="#8093A3" width="40.7" height="46.8"/>
<rect x="-107.6" y="-249.7" fill="#566271" width="40.7" height="46.8"/>
<rect x="-188.7" y="-203" fill="#333333" width="40.7" height="47.1"/>
<rect x="-148.3" y="-203" fill="#25C0EA" width="40.7" height="47.1"/>
<rect x="-107.6" y="-203" fill="#0598BA" width="40.7" height="47.1"/>
</svg>
